# xmcd
#
# Track frame offsets: 
#        150
#        24739
#        44550
#        78295
#        100987
#        129532
#        150146
#        172583
#        199873
#        221935
#
# Disc length: 3161 seconds
#
# Revision: 0
# Processed by: cddbd v1.5.2PL0 Copyright (c) Steve Scherf et al.
# Submitted via: ExactAudioCopy v1.0b3
#
DISCID=7d0c570a
DTITLE=My Huyen - Ao Dai Que Huong
DYEAR=1996
DGENRE=
TTITLE0=Em di tren co non
TTITLE1=Gia tu
TTITLE2=Do doc
TTITLE3=Ly Cai Mon
TTITLE4=Thuong ve me Hue
TTITLE5=Ru con Nam bo
TTITLE6=Bong hong Viet Nam
TTITLE7=Cay dang bo moi
TTITLE8=No
TTITLE9=Bai ngoi ca que huong
EXTD=
EXTT0=
EXTT1=
EXTT2=
EXTT3=
EXTT4=
EXTT5=
EXTT6=
EXTT7=
EXTT8=
EXTT9=
PLAYORDER=
